<svg viewBox="0 0 100 100" xmlns="http://www.w3.org/2000/svg" xmlns:xlink="http://www.w3.org/1999/xlink" width="100" height="100">
<defs>



<g id="bg" fill="#ff9311" class="bg"><path d="M0,50a50,50 0 1,0 100,0a50,50 0 1,0 -100,0"/></g><g id="fg"><path opacity="0.1" d="M85.355,14.645l-70.711,70.71c19.526,19.526,51.185,19.526,70.711,0 C104.882,65.83,104.882,34.171,85.355,14.645z"/><path opacity="0.1" d="M50,0v100c27.614,0,50-22.386,50-50S77.614,0,50,0z"/></g> 
 <path fill="#002a4a" id="i-466" d="M14.64,43.995l8.91-19.691l18.01,8l0.4-0.909c4.65-10.511,0.97-21.16-8.92-26.521c-0.06-1.05-0.93-1.89-1.99-1.89 c-0.46,0-0.88,0.17-1.22,0.431c-2.49-0.931-5.01-1.41-7.49-1.41c-7.91,0-14.72,4.709-18.21,12.59l-0.4,0.91l17.99,7.99l-9.28,20.5H0 v2h48v-2H14.64z M15.74,18.654c3.17-6.479,7.3-11.271,11.029-12.7c1.421-0.55,2.73-0.56,3.87-0.05c0,0,0,0,0.011,0 c4.34,1.95,4.77,10.649,1.18,19.89L15.74,18.654z"/> 
</defs>
<use x="0" y="0" class="bg" xlink:href="#bg"/>
<use x="26" y="26" xlink:href="#i-466"/>
<use x="0" y="0" xlink:href="#fg"/>
</svg>